<?xml version="1.0" standalone="no"?>
<!DOCTYPE svg PUBLIC "-//W3C//DTD SVG 1.1//EN" "http://www.w3.org/Graphics/SVG/1.1/DTD/svg11.dtd" >
<svg xmlns="http://www.w3.org/2000/svg">
<metadata></metadata>
<defs>
<font id="intro_condlight_free" horiz-adv-x="1435" >
<font-face units-per-em="2048" ascent="1536" descent="-512" />
<missing-glyph horiz-adv-x="456" />
<glyph horiz-adv-x="2048" />
<glyph horiz-adv-x="2048" />
<glyph unicode="&#xd;" horiz-adv-x="2048" />
<glyph unicode=" "  horiz-adv-x="456" />
<glyph unicode="&#x09;" horiz-adv-x="456" />
<glyph unicode="&#xa0;" horiz-adv-x="456" />
<glyph unicode="!" horiz-adv-x="401" d="M139 47q0 28 17 46t45 18q27 0 45 -17.5t18 -46.5t-18 -46t-45 -17q-28 0 -45 16.5t-17 46.5zM156 1440h92q0 -196 -1 -586t-1 -586h-88z" />
<glyph unicode="&#x22;" d="M102 711q0 168 83 311t225.5 226t310.5 83q126 0 241 -49t198 -132t132 -198t49 -241q0 -168 -83 -310.5t-226 -225.5t-311 -83t-310.5 83t-225.5 225.5t-83 310.5zM467 946l205 -237l-201 -232l53 -55l195 231l199 -229l53 57l-197 230l201 235l-55 55l-197 -235 l-203 235z" />
<glyph unicode="#" d="M102 711q0 168 83 311t225.5 226t310.5 83q126 0 241 -49t198 -132t132 -198t49 -241q0 -168 -83 -310.5t-226 -225.5t-311 -83t-310.5 83t-225.5 225.5t-83 310.5zM467 946l205 -237l-201 -232l53 -55l195 231l199 -229l53 57l-197 230l201 235l-55 55l-197 -235 l-203 235z" />
<glyph unicode="$" d="M102 711q0 168 83 311t225.5 226t310.5 83q126 0 241 -49t198 -132t132 -198t49 -241q0 -168 -83 -310.5t-226 -225.5t-311 -83t-310.5 83t-225.5 225.5t-83 310.5zM467 946l205 -237l-201 -232l53 -55l195 231l199 -229l53 57l-197 230l201 235l-55 55l-197 -235 l-203 235z" />
<glyph unicode="%" d="M102 711q0 168 83 311t225.5 226t310.5 83q126 0 241 -49t198 -132t132 -198t49 -241q0 -168 -83 -310.5t-226 -225.5t-311 -83t-310.5 83t-225.5 225.5t-83 310.5zM467 946l205 -237l-201 -232l53 -55l195 231l199 -229l53 57l-197 230l201 235l-55 55l-197 -235 l-203 235z" />
<glyph unicode="&#x26;" horiz-adv-x="1128" d="M98 418q0 306 271 389q-187 70 -193 299q0 89 31.5 158t85.5 108.5t118 59.5t136 20q97 0 174 -31.5t128 -106t54 -184.5h-86q-2 65 -25 112.5t-62 73.5t-85 38t-100 12t-102.5 -15t-89 -45t-64 -81.5t-23.5 -118.5q0 -130 84 -195t230 -65v-86q-53 0 -78 -2 q-142 -13 -224.5 -91.5t-82.5 -246.5q0 -164 86 -257t245 -93q163 0 243.5 96.5t80.5 306.5v365h219v-80h-133v-287q0 -247 -106 -368t-304 -121q-201 0 -314.5 119t-113.5 317z" />
<glyph unicode="'" d="M102 711q0 168 83 311t225.5 226t310.5 83q126 0 241 -49t198 -132t132 -198t49 -241q0 -168 -83 -310.5t-226 -225.5t-311 -83t-310.5 83t-225.5 225.5t-83 310.5zM467 946l205 -237l-201 -232l53 -55l195 231l199 -229l53 57l-197 230l201 235l-55 55l-197 -235 l-203 235z" />
<glyph unicode="(" d="M102 711q0 168 83 311t225.5 226t310.5 83q126 0 241 -49t198 -132t132 -198t49 -241q0 -168 -83 -310.5t-226 -225.5t-311 -83t-310.5 83t-225.5 225.5t-83 310.5zM467 946l205 -237l-201 -232l53 -55l195 231l199 -229l53 57l-197 230l201 235l-55 55l-197 -235 l-203 235z" />
<glyph unicode=")" d="M102 711q0 168 83 311t225.5 226t310.5 83q126 0 241 -49t198 -132t132 -198t49 -241q0 -168 -83 -310.5t-226 -225.5t-311 -83t-310.5 83t-225.5 225.5t-83 310.5zM467 946l205 -237l-201 -232l53 -55l195 231l199 -229l53 57l-197 230l201 235l-55 55l-197 -235 l-203 235z" />
<glyph unicode="*" d="M102 711q0 168 83 311t225.5 226t310.5 83q126 0 241 -49t198 -132t132 -198t49 -241q0 -168 -83 -310.5t-226 -225.5t-311 -83t-310.5 83t-225.5 225.5t-83 310.5zM467 946l205 -237l-201 -232l53 -55l195 231l199 -229l53 57l-197 230l201 235l-55 55l-197 -235 l-203 235z" />
<glyph unicode="+" d="M102 711q0 168 83 311t225.5 226t310.5 83q126 0 241 -49t198 -132t132 -198t49 -241q0 -168 -83 -310.5t-226 -225.5t-311 -83t-310.5 83t-225.5 225.5t-83 310.5zM467 946l205 -237l-201 -232l53 -55l195 231l199 -229l53 57l-197 230l201 235l-55 55l-197 -235 l-203 235z" />
<glyph unicode="," horiz-adv-x="387" d="M127 41q0 45 37 62t71 -5t27 -69l-63 -222h-66l41 168q-20 3 -33.5 21.5t-13.5 44.5z" />
<glyph unicode="-" d="M102 711q0 168 83 311t225.5 226t310.5 83q126 0 241 -49t198 -132t132 -198t49 -241q0 -168 -83 -310.5t-226 -225.5t-311 -83t-310.5 83t-225.5 225.5t-83 310.5zM467 946l205 -237l-201 -232l53 -55l195 231l199 -229l53 57l-197 230l201 235l-55 55l-197 -235 l-203 235z" />
<glyph unicode="." horiz-adv-x="380" d="M123 57q0 32 21 50.5t46.5 18.5t46.5 -18t21 -51q0 -40 -34 -57t-67.5 -0.5t-33.5 57.5z" />
<glyph unicode="/" d="M102 711q0 168 83 311t225.5 226t310.5 83q126 0 241 -49t198 -132t132 -198t49 -241q0 -168 -83 -310.5t-226 -225.5t-311 -83t-310.5 83t-225.5 225.5t-83 310.5zM467 946l205 -237l-201 -232l53 -55l195 231l199 -229l53 57l-197 230l201 235l-55 55l-197 -235 l-203 235z" />
<glyph unicode="0" horiz-adv-x="1134" d="M119 471v487q0 235 125.5 365.5t322.5 130.5q95 0 175.5 -31t141.5 -90.5t95.5 -155.5t34.5 -219v-487q0 -239 -125 -366.5t-322 -127.5t-322.5 129t-125.5 365zM211 467q0 -178 91 -287.5t265 -109.5q172 0 264.5 102t92.5 295v489q0 196 -88.5 304t-268.5 108 q-165 0 -260.5 -108t-95.5 -304v-489z" />
<glyph unicode="1" horiz-adv-x="706" d="M68 0v84h254v1268h-224v82h318v-1350h254v-84h-602z" />
<glyph unicode="2" horiz-adv-x="942" d="M82 0v23l532 745q51 70 81.5 152t32 160.5t-23 143t-89 104.5t-160.5 40q-131 0 -200.5 -73.5t-70.5 -219.5h-88q2 183 93 280.5t264 98.5q154 3 249 -81t111 -216q11 -103 -23.5 -225t-103.5 -217q-77 -104 -227 -318t-221 -311l622 4v-90h-778z" />
<glyph unicode="3" horiz-adv-x="993" d="M80 369h88q7 -141 92.5 -221t212.5 -80q76 0 132.5 17t102 57t69.5 114.5t24 181.5q0 201 -116.5 297.5t-307.5 36.5l-15 33l386 545h-617v84h768v-25l-389 -539q169 8 276 -107.5t107 -320.5q0 -235 -110 -348.5t-308 -113.5q-166 0 -274.5 101t-120.5 288z" />
<glyph unicode="4" horiz-adv-x="1003" d="M43 344v41l653 1049h90v-1010h158v-80h-158v-344h-90v344h-653zM172 426h526v399l7 465h-3z" />
<glyph unicode="5" horiz-adv-x="1005" d="M104 352h89q12 -81 39.5 -137t68.5 -86.5t89 -43.5t110 -13q67 0 123.5 20.5t103.5 63t73.5 117.5t26.5 176q0 106 -27 182t-76.5 117.5t-106.5 61t-130 24.5q-152 10 -346 -56v656h707v-86h-621v-467q44 19 129 31.5t136 7.5q69 -4 129.5 -21t116.5 -52.5t95.5 -88 t63 -131.5t23.5 -178q0 -219 -116 -343t-306 -124q-164 0 -268 88.5t-126 281.5z" />
<glyph unicode="6" horiz-adv-x="1003" d="M63 446q0 156 76 281l400 707h108l-340 -590q91 63 205 63q180 5 303 -122.5t123 -338.5q0 -113 -34.5 -202.5t-95.5 -145.5t-139 -85t-169 -29q-120 0 -218 52t-158.5 158.5t-60.5 251.5zM160 446q0 -172 98 -272t242 -100q149 0 245.5 96t96.5 276q0 99 -27 173 t-75.5 116t-108.5 62t-133 20q-144 0 -241 -99.5t-97 -271.5z" />
<glyph unicode="7" horiz-adv-x="860" d="M57 1343v91h791v-17l-608 -1417h-105l584 1343h-662z" />
<glyph unicode="8" horiz-adv-x="1073" d="M96 406q0 145 75.5 249t193.5 142q-87 39 -139 115.5t-52 189.5q0 162 105.5 258t257.5 96q157 0 262.5 -92.5t105.5 -261.5q0 -108 -57 -186.5t-146 -118.5q120 -40 198.5 -144t78.5 -247q0 -103 -35 -186t-96 -135.5t-140.5 -80t-170.5 -27.5q-90 0 -169.5 28.5 t-140 82t-96 135.5t-35.5 183zM193 408q0 -83 29.5 -150t78.5 -109t109.5 -64t126.5 -22q67 0 128 21.5t110 62t78.5 108.5t29.5 153q0 109 -51 188.5t-128 115.5t-167 36q-67 0 -128 -21.5t-109.5 -62t-77.5 -107t-29 -149.5zM264 1098q0 -63 23 -114.5t62 -83.5t87.5 -49 t100.5 -17q113 0 194.5 70t81.5 196q0 136 -80 205t-196 69q-112 0 -192.5 -70.5t-80.5 -205.5z" />
<glyph unicode="9" horiz-adv-x="1011" d="M63 1006q0 110 36.5 197t99 141t142.5 82t171 28q90 0 168 -28t138.5 -82.5t95 -143.5t34.5 -203q0 -153 -78 -280l-415 -717h-109l352 600q-79 -57 -196 -57q-90 0 -168.5 29t-139.5 85t-96 146t-35 203zM160 1006q0 -80 19 -144.5t52 -107.5t78.5 -71.5t96 -41 t108.5 -12.5q145 0 242.5 98t97.5 270q0 180 -96.5 273.5t-245.5 93.5q-71 0 -133.5 -22t-112 -64.5t-78 -112.5t-28.5 -159z" />
<glyph unicode=":" d="M102 711q0 168 83 311t225.5 226t310.5 83q126 0 241 -49t198 -132t132 -198t49 -241q0 -168 -83 -310.5t-226 -225.5t-311 -83t-310.5 83t-225.5 225.5t-83 310.5zM467 946l205 -237l-201 -232l53 -55l195 231l199 -229l53 57l-197 230l201 235l-55 55l-197 -235 l-203 235z" />
<glyph unicode=";" d="M102 711q0 168 83 311t225.5 226t310.5 83q126 0 241 -49t198 -132t132 -198t49 -241q0 -168 -83 -310.5t-226 -225.5t-311 -83t-310.5 83t-225.5 225.5t-83 310.5zM467 946l205 -237l-201 -232l53 -55l195 231l199 -229l53 57l-197 230l201 235l-55 55l-197 -235 l-203 235z" />
<glyph unicode="&#x3c;" d="M102 711q0 168 83 311t225.5 226t310.5 83q126 0 241 -49t198 -132t132 -198t49 -241q0 -168 -83 -310.5t-226 -225.5t-311 -83t-310.5 83t-225.5 225.5t-83 310.5zM467 946l205 -237l-201 -232l53 -55l195 231l199 -229l53 57l-197 230l201 235l-55 55l-197 -235 l-203 235z" />
<glyph unicode="=" d="M102 711q0 168 83 311t225.5 226t310.5 83q126 0 241 -49t198 -132t132 -198t49 -241q0 -168 -83 -310.5t-226 -225.5t-311 -83t-310.5 83t-225.5 225.5t-83 310.5zM467 946l205 -237l-201 -232l53 -55l195 231l199 -229l53 57l-197 230l201 235l-55 55l-197 -235 l-203 235z" />
<glyph unicode="&#x3e;" d="M102 711q0 168 83 311t225.5 226t310.5 83q126 0 241 -49t198 -132t132 -198t49 -241q0 -168 -83 -310.5t-226 -225.5t-311 -83t-310.5 83t-225.5 225.5t-83 310.5zM467 946l205 -237l-201 -232l53 -55l195 231l199 -229l53 57l-197 230l201 235l-55 55l-197 -235 l-203 235z" />
<glyph unicode="?" horiz-adv-x="843" d="M63 1096q1 172 96 264t249 92q56 0 108.5 -13t102.5 -43.5t85.5 -75.5t55 -115t14.5 -156q-5 -75 -32 -137.5t-58 -99.5t-77 -91.5t-72 -97.5q-90 -149 -80 -359h-95q-5 244 97 400q25 39 71 94t76 92t54 93t24 114q2 86 -20.5 148.5t-64 95.5t-88.5 48t-103 15 q-249 0 -252 -268h-91zM344 57q0 29 18 45.5t46 16.5q26 0 43.5 -17t17.5 -45q0 -30 -17 -47.5t-44 -17.5t-45.5 17.5t-18.5 47.5z" />
<glyph unicode="@" d="M102 711q0 168 83 311t225.5 226t310.5 83q126 0 241 -49t198 -132t132 -198t49 -241q0 -168 -83 -310.5t-226 -225.5t-311 -83t-310.5 83t-225.5 225.5t-83 310.5zM467 946l205 -237l-201 -232l53 -55l195 231l199 -229l53 57l-197 230l201 235l-55 55l-197 -235 l-203 235z" />
<glyph unicode="A" horiz-adv-x="1249" d="M33 0v12l571 1426h43l565 -1426v-12h-100l-162 414h-653l-162 -414h-102zM330 504h588l-293 764z" />
<glyph unicode="B" horiz-adv-x="1165" d="M172 0v1434h451q85 0 154 -21t122.5 -65t83 -118t29.5 -173q0 -108 -45.5 -193t-132.5 -119q112 -32 173.5 -126.5t61.5 -225.5q0 -194 -106 -293.5t-281 -99.5h-510zM268 94h408q132 0 213.5 73.5t81.5 225.5q0 299 -336 299h-367v-598zM268 780h357q65 0 115 13 t91.5 43t64 86.5t22.5 136.5q0 65 -15.5 114.5t-42.5 81t-66 51.5t-81.5 27.5t-94.5 7.5h-350v-561z" />
<glyph unicode="C" horiz-adv-x="1329" d="M96 717q0 216 75.5 383.5t215 260.5t322.5 93q195 0 339.5 -103.5t194.5 -312.5h-92q-24 87 -70.5 152t-107 102.5t-127 55.5t-139.5 18q-165 0 -283 -85t-176 -230t-58 -334q0 -300 134 -472.5t385 -172.5q164 0 282 83.5t168 270.5h92q-29 -146 -114 -249.5 t-194.5 -150t-233.5 -46.5q-286 0 -449.5 197.5t-163.5 539.5z" />
<glyph unicode="D" horiz-adv-x="1282" d="M172 0v1434h422q180 0 314.5 -91t205 -253t70.5 -373t-70.5 -373t-205 -253t-314.5 -91h-422zM266 94h324q228 0 364 168.5t136 452.5q0 287 -135 456.5t-363 169.5h-326v-1247z" />
<glyph unicode="E" horiz-adv-x="993" d="M172 0v1434h705v-91h-613v-557h588v-90h-588v-602h621v-94h-713z" />
<glyph unicode="F" horiz-adv-x="962" d="M172 0v1434h715v-91h-619v-561h572v-90h-572v-692h-96z" />
<glyph unicode="G" horiz-adv-x="1363" d="M96 721q0 167 46 305.5t126.5 231.5t191.5 144.5t240 51.5q126 0 229.5 -41t185 -134t122.5 -232h-94q-59 166 -171 239.5t-274 73.5q-233 -5 -369 -172.5t-136 -466.5q0 -301 135.5 -472t369.5 -171q217 0 351 148.5t149 424.5h-477v84h567v-22q0 -195 -51 -338 q-69 -189 -209.5 -292t-329.5 -103q-267 0 -434.5 201t-167.5 540z" />
<glyph unicode="H" horiz-adv-x="1259" d="M172 0v1434h94v-633h725v633h96v-1434h-96v709h-725v-709h-94z" />
<glyph unicode="I" horiz-adv-x="661" d="M55 0v84h228v1268h-213v82h522v-82h-215v-1268h227v-84h-549z" />
<glyph unicode="J" horiz-adv-x="1118" d="M61 483v103h93v-103q0 -204 94.5 -307.5t255.5 -103.5q164 0 263 104t99 307v867h-340v84h432v-951q0 -246 -125 -374.5t-329 -128.5q-201 0 -322 130.5t-121 372.5z" />
<glyph unicode="K" horiz-adv-x="1130" d="M170 0v1434h94v-686q238 0 309 49q78 52 151 345q1 4 1.5 6.5t1.5 6t2 6.5q13 54 27.5 93.5t35.5 75.5t45.5 57t58.5 37q33 16 74 16h3q42 0 96 -8v-76q-33 5 -60 5q-23 0 -43 -4q-42 -8 -70 -37.5t-45 -70.5t-34 -110t-22.5 -89t-24 -81.5t-32 -91t-37.5 -69.5t-50 -65 l449 -729v-14h-103l-422 698q-66 -39 -311 -39v-659h-94z" />
<glyph unicode="L" horiz-adv-x="892" d="M172 0v1434h94v-1344h604v-90h-698z" />
<glyph unicode="M" horiz-adv-x="1437" d="M172 0v1436h41l506 -861l506 861h41v-1436h-92v1178l-445 -758h-18l-447 758v-1178h-92z" />
<glyph unicode="N" horiz-adv-x="1296" d="M172 0v1436h37l829 -1203l-8 517v686h94v-1436h-30l-834 1202l6 -481v-721h-94z" />
<glyph unicode="O" horiz-adv-x="1425" d="M96 717q0 171 47.5 311.5t130.5 233t195 142.5t242 50q133 0 246 -50t195.5 -142.5t129.5 -232.5t47 -312q0 -343 -170 -540t-448 -197q-131 0 -243.5 50t-195 142.5t-129.5 233t-47 311.5zM193 717q0 -298 144.5 -470.5t373.5 -172.5q233 0 377.5 169t144.5 474 q0 302 -143 472.5t-377 170.5q-230 0 -375 -174t-145 -469z" />
<glyph unicode="P" horiz-adv-x="1134" d="M172 0v1434h471q192 0 310 -124t118 -352q0 -218 -119.5 -345.5t-308.5 -127.5h-377v-485h-94zM266 580h377q70 0 129 23t105 68t72 119.5t26 170.5q0 190 -91.5 286t-240.5 96h-377v-763z" />
<glyph unicode="Q" horiz-adv-x="1425" d="M96 717q0 171 47.5 311.5t130.5 233.5t195 143.5t242 50.5q133 0 246 -50.5t195.5 -143.5t129.5 -233t47 -312q0 -319 -151 -516l174 -199v-6h-117l-121 135q-157 -151 -403 -151q-131 0 -243.5 50t-195 142.5t-129.5 233t-47 311.5zM193 717q0 -298 144.5 -470.5 t373.5 -172.5q233 0 377.5 169t144.5 474q0 302 -143.5 473.5t-376.5 171.5q-229 0 -374.5 -175t-145.5 -470z" />
<glyph unicode="R" horiz-adv-x="1163" d="M172 0v1434h471q182 0 296 -121.5t114 -325.5q0 -174 -90 -287t-232 -139l379 -555v-6h-113l-366 547h-363v-547h-96zM266 635h377q136 0 225.5 93.5t89.5 260.5q0 173 -87.5 263.5t-227.5 90.5h-377v-708z" />
<glyph unicode="S" horiz-adv-x="1134" d="M86 375h94q3 -70 30.5 -125t67.5 -88t93 -54.5t103.5 -29.5t103.5 -8q67 0 130 18t118 54.5t89 99t35 143.5v7q0 46 -12 84q-12 42 -29 70t-51.5 52t-60 37t-75 26t-76 18t-81.5 15q-56 8 -96 16t-90 22.5t-84.5 32t-70.5 45.5t-58 63t-35.5 84.5t-13.5 109.5 q0 98 39.5 175t104.5 122t140.5 67.5t155.5 22.5q70 0 133 -12.5t120.5 -41t100.5 -71t70 -106t31 -142.5h-92q-4 65 -29 116t-61 82t-83.5 50.5t-93 27t-94.5 7.5q-65 0 -123.5 -15.5t-110 -48.5t-82 -92.5t-30.5 -138.5q0 -49 13 -88.5t27.5 -66t50 -49t54.5 -33.5 t69 -22.5t66 -14t70 -10.5q13 -2 19 -3q58 -10 101 -19t94.5 -25t88 -35.5t73.5 -49.5t59 -67t36 -89q13 -48 13 -105v-9q-1 -102 -42 -181.5t-108.5 -126.5t-148 -71t-168.5 -24q-71 0 -136.5 11.5t-130 40.5t-113 72.5t-80 113t-34.5 157.5z" />
<glyph unicode="T" horiz-adv-x="942" d="M29 1346v88h886v-88h-395v-1346h-96v1346h-395z" />
<glyph unicode="U" horiz-adv-x="1232" d="M160 492v942h92v-940q0 -205 99.5 -310.5t266.5 -105.5q166 0 264.5 105.5t98.5 310.5v940h92v-942q0 -246 -124.5 -378t-330.5 -132q-207 0 -332.5 132t-125.5 378z" />
<glyph unicode="V" horiz-adv-x="1159" d="M55 1419v15h101l229 -664l197 -571l190 571l227 664h103v-15l-502 -1423h-41z" />
<glyph unicode="W" horiz-adv-x="1677" d="M76 1417v17h100l193 -756l110 -475l336 1204h45l344 -1202l103 471l192 758h103v-13l-369 -1427h-70l-325 1171l-322 -1171h-67z" />
<glyph unicode="X" horiz-adv-x="1064" d="M20 0v14l457 742l-409 663v15h102l362 -605h3l182 308l180 297h100v-13l-409 -665l456 -744v-12h-106l-217 365l-186 315h-5l-178 -307l-223 -373h-109z" />
<glyph unicode="Y" horiz-adv-x="1122" d="M63 1421v13h105l194 -365l197 -379h2l199 379l194 365h103v-15l-447 -823v-596h-98v596z" />
<glyph unicode="Z" horiz-adv-x="1001" d="M25 0v12l503 877l267 454h-691v91h836v-17q-463 -801 -766 -1329l766 2v-90h-915z" />
<glyph unicode="[" d="M102 711q0 168 83 311t225.5 226t310.5 83q126 0 241 -49t198 -132t132 -198t49 -241q0 -168 -83 -310.5t-226 -225.5t-311 -83t-310.5 83t-225.5 225.5t-83 310.5zM467 946l205 -237l-201 -232l53 -55l195 231l199 -229l53 57l-197 230l201 235l-55 55l-197 -235 l-203 235z" />
<glyph unicode="\" d="M102 711q0 168 83 311t225.5 226t310.5 83q126 0 241 -49t198 -132t132 -198t49 -241q0 -168 -83 -310.5t-226 -225.5t-311 -83t-310.5 83t-225.5 225.5t-83 310.5zM467 946l205 -237l-201 -232l53 -55l195 231l199 -229l53 57l-197 230l201 235l-55 55l-197 -235 l-203 235z" />
<glyph unicode="]" d="M102 711q0 168 83 311t225.5 226t310.5 83q126 0 241 -49t198 -132t132 -198t49 -241q0 -168 -83 -310.5t-226 -225.5t-311 -83t-310.5 83t-225.5 225.5t-83 310.5zM467 946l205 -237l-201 -232l53 -55l195 231l199 -229l53 57l-197 230l201 235l-55 55l-197 -235 l-203 235z" />
<glyph unicode="^" d="M102 711q0 168 83 311t225.5 226t310.5 83q126 0 241 -49t198 -132t132 -198t49 -241q0 -168 -83 -310.5t-226 -225.5t-311 -83t-310.5 83t-225.5 225.5t-83 310.5zM467 946l205 -237l-201 -232l53 -55l195 231l199 -229l53 57l-197 230l201 235l-55 55l-197 -235 l-203 235z" />
<glyph unicode="_" d="M102 711q0 168 83 311t225.5 226t310.5 83q126 0 241 -49t198 -132t132 -198t49 -241q0 -168 -83 -310.5t-226 -225.5t-311 -83t-310.5 83t-225.5 225.5t-83 310.5zM467 946l205 -237l-201 -232l53 -55l195 231l199 -229l53 57l-197 230l201 235l-55 55l-197 -235 l-203 235z" />
<glyph unicode="`" horiz-adv-x="610" d="M193 1436l77 41l150 -254v-6h-80z" />
<glyph unicode="a" horiz-adv-x="1249" d="M33 0v12l571 1426h43l565 -1426v-12h-100l-162 414h-653l-162 -414h-102zM330 504h588l-293 764z" />
<glyph unicode="b" horiz-adv-x="1165" d="M172 0v1434h451q85 0 154 -21t122.5 -65t83 -118t29.5 -173q0 -108 -45.5 -193t-132.5 -119q112 -32 173.5 -126.5t61.5 -225.5q0 -194 -106 -293.5t-281 -99.5h-510zM268 94h408q132 0 213.5 73.5t81.5 225.5q0 299 -336 299h-367v-598zM268 780h357q65 0 115 13 t91.5 43t64 86.5t22.5 136.5q0 65 -15.5 114.5t-42.5 81t-66 51.5t-81.5 27.5t-94.5 7.5h-350v-561z" />
<glyph unicode="c" horiz-adv-x="1329" d="M96 717q0 216 75.5 383.5t215 260.5t322.5 93q195 0 339.5 -103.5t194.5 -312.5h-92q-24 87 -70.5 152t-107 102.5t-127 55.5t-139.5 18q-165 0 -283 -85t-176 -230t-58 -334q0 -300 134 -472.5t385 -172.5q164 0 282 83.5t168 270.5h92q-29 -146 -114 -249.5 t-194.5 -150t-233.5 -46.5q-286 0 -449.5 197.5t-163.5 539.5z" />
<glyph unicode="d" horiz-adv-x="1282" d="M172 0v1434h422q180 0 314.5 -91t205 -253t70.5 -373t-70.5 -373t-205 -253t-314.5 -91h-422zM266 94h324q228 0 364 168.5t136 452.5q0 287 -135 456.5t-363 169.5h-326v-1247z" />
<glyph unicode="e" horiz-adv-x="993" d="M172 0v1434h705v-91h-613v-557h588v-90h-588v-602h621v-94h-713z" />
<glyph unicode="f" horiz-adv-x="962" d="M172 0v1434h715v-91h-619v-561h572v-90h-572v-692h-96z" />
<glyph unicode="g" horiz-adv-x="1363" d="M96 721q0 167 46 305.5t126.5 231.5t191.5 144.5t240 51.5q126 0 229.5 -41t185 -134t122.5 -232h-94q-59 166 -171 239.5t-274 73.5q-233 -5 -369 -172.5t-136 -466.5q0 -301 135.5 -472t369.5 -171q217 0 351 148.5t149 424.5h-477v84h567v-22q0 -195 -51 -338 q-69 -189 -209.5 -292t-329.5 -103q-267 0 -434.5 201t-167.5 540z" />
<glyph unicode="h" horiz-adv-x="1259" d="M172 0v1434h94v-633h725v633h96v-1434h-96v709h-725v-709h-94z" />
<glyph unicode="i" horiz-adv-x="661" d="M55 0v84h228v1268h-213v82h522v-82h-215v-1268h227v-84h-549z" />
<glyph unicode="j" horiz-adv-x="1118" d="M61 483v103h93v-103q0 -204 94.5 -307.5t255.5 -103.5q164 0 263 104t99 307v867h-340v84h432v-951q0 -246 -125 -374.5t-329 -128.5q-201 0 -322 130.5t-121 372.5z" />
<glyph unicode="k" horiz-adv-x="1130" d="M170 0v1434h94v-686q238 0 309 49q78 52 151 345q1 4 1.5 6.5t1.5 6t2 6.5q13 54 27.5 93.5t35.5 75.5t45.5 57t58.5 37q33 16 74 16h3q42 0 96 -8v-76q-33 5 -60 5q-23 0 -43 -4q-42 -8 -70 -37.5t-45 -70.5t-34 -110t-22.5 -89t-24 -81.5t-32 -91t-37.5 -69.5t-50 -65 l449 -729v-14h-103l-422 698q-66 -39 -311 -39v-659h-94z" />
<glyph unicode="l" horiz-adv-x="892" d="M172 0v1434h94v-1344h604v-90h-698z" />
<glyph unicode="m" horiz-adv-x="1437" d="M172 0v1436h41l506 -861l506 861h41v-1436h-92v1178l-445 -758h-18l-447 758v-1178h-92z" />
<glyph unicode="n" horiz-adv-x="1296" d="M172 0v1436h37l829 -1203l-8 517v686h94v-1436h-30l-834 1202l6 -481v-721h-94z" />
<glyph unicode="o" horiz-adv-x="1425" d="M96 717q0 171 47.5 311.5t130.5 233t195 142.5t242 50q133 0 246 -50t195.5 -142.5t129.5 -232.5t47 -312q0 -343 -170 -540t-448 -197q-131 0 -243.5 50t-195 142.5t-129.5 233t-47 311.5zM193 717q0 -298 144.5 -470.5t373.5 -172.5q233 0 377.5 169t144.5 474 q0 302 -143 472.5t-377 170.5q-230 0 -375 -174t-145 -469z" />
<glyph unicode="p" horiz-adv-x="1134" d="M172 0v1434h471q192 0 310 -124t118 -352q0 -218 -119.5 -345.5t-308.5 -127.5h-377v-485h-94zM266 580h377q70 0 129 23t105 68t72 119.5t26 170.5q0 190 -91.5 286t-240.5 96h-377v-763z" />
<glyph unicode="q" horiz-adv-x="1441" d="M96 717q0 171 47.5 311.5t130.5 233.5t195 143.5t242 50.5q133 0 246 -50.5t195.5 -143.5t129.5 -233t47 -312q0 -319 -151 -516l174 -199v-6h-117l-121 135q-157 -151 -403 -151q-131 0 -243.5 50t-195 142.5t-129.5 233t-47 311.5zM193 717q0 -298 144.5 -470.5 t373.5 -172.5q233 0 377.5 169t144.5 474q0 302 -143.5 473.5t-376.5 171.5q-229 0 -374.5 -175t-145.5 -470z" />
<glyph unicode="r" horiz-adv-x="1163" d="M172 0v1434h471q182 0 296 -121.5t114 -325.5q0 -174 -90 -287t-232 -139l379 -555v-6h-113l-366 547h-363v-547h-96zM266 635h377q136 0 225.5 93.5t89.5 260.5q0 173 -87.5 263.5t-227.5 90.5h-377v-708z" />
<glyph unicode="s" horiz-adv-x="1134" d="M86 375h94q3 -70 30.5 -125t67.5 -88t93 -54.5t103.5 -29.5t103.5 -8q67 0 130 18t118 54.5t89 99t35 143.5v7q0 46 -12 84q-12 42 -29 70t-51.5 52t-60 37t-75 26t-76 18t-81.5 15q-56 8 -96 16t-90 22.5t-84.5 32t-70.5 45.5t-58 63t-35.5 84.5t-13.5 109.5 q0 98 39.5 175t104.5 122t140.5 67.5t155.5 22.5q70 0 133 -12.5t120.5 -41t100.5 -71t70 -106t31 -142.5h-92q-4 65 -29 116t-61 82t-83.5 50.5t-93 27t-94.5 7.5q-65 0 -123.5 -15.5t-110 -48.5t-82 -92.5t-30.5 -138.5q0 -49 13 -88.5t27.5 -66t50 -49t54.5 -33.5 t69 -22.5t66 -14t70 -10.5q13 -2 19 -3q58 -10 101 -19t94.5 -25t88 -35.5t73.5 -49.5t59 -67t36 -89q13 -48 13 -105v-9q-1 -102 -42 -181.5t-108.5 -126.5t-148 -71t-168.5 -24q-71 0 -136.5 11.5t-130 40.5t-113 72.5t-80 113t-34.5 157.5z" />
<glyph unicode="t" horiz-adv-x="942" d="M29 1346v88h886v-88h-395v-1346h-96v1346h-395z" />
<glyph unicode="u" horiz-adv-x="1232" d="M160 492v942h92v-940q0 -205 99.5 -310.5t266.5 -105.5q166 0 264.5 105.5t98.5 310.5v940h92v-942q0 -246 -124.5 -378t-330.5 -132q-207 0 -332.5 132t-125.5 378z" />
<glyph unicode="v" horiz-adv-x="1159" d="M55 1419v15h101l229 -664l197 -571l190 571l227 664h103v-15l-502 -1423h-41z" />
<glyph unicode="w" horiz-adv-x="1677" d="M76 1417v17h100l193 -756l110 -475l336 1204h45l344 -1202l103 471l192 758h103v-13l-369 -1427h-70l-325 1171l-322 -1171h-67z" />
<glyph unicode="x" horiz-adv-x="1064" d="M20 0v14l457 742l-409 663v15h102l362 -605h3l182 308l180 297h100v-13l-409 -665l456 -744v-12h-106l-217 365l-186 315h-5l-178 -307l-223 -373h-109z" />
<glyph unicode="y" horiz-adv-x="1122" d="M63 1421v13h105l194 -365l197 -379h2l199 379l194 365h103v-15l-447 -823v-596h-98v596z" />
<glyph unicode="z" horiz-adv-x="1001" d="M25 0v12l503 877l267 454h-691v91h836v-17q-463 -801 -766 -1329l766 2v-90h-915z" />
<glyph unicode="{" d="M102 711q0 168 83 311t225.5 226t310.5 83q126 0 241 -49t198 -132t132 -198t49 -241q0 -168 -83 -310.5t-226 -225.5t-311 -83t-310.5 83t-225.5 225.5t-83 310.5zM467 946l205 -237l-201 -232l53 -55l195 231l199 -229l53 57l-197 230l201 235l-55 55l-197 -235 l-203 235z" />
<glyph unicode="|" d="M102 711q0 168 83 311t225.5 226t310.5 83q126 0 241 -49t198 -132t132 -198t49 -241q0 -168 -83 -310.5t-226 -225.5t-311 -83t-310.5 83t-225.5 225.5t-83 310.5zM467 946l205 -237l-201 -232l53 -55l195 231l199 -229l53 57l-197 230l201 235l-55 55l-197 -235 l-203 235z" />
<glyph unicode="}" d="M102 711q0 168 83 311t225.5 226t310.5 83q126 0 241 -49t198 -132t132 -198t49 -241q0 -168 -83 -310.5t-226 -225.5t-311 -83t-310.5 83t-225.5 225.5t-83 310.5zM467 946l205 -237l-201 -232l53 -55l195 231l199 -229l53 57l-197 230l201 235l-55 55l-197 -235 l-203 235z" />
<glyph unicode="~" d="M102 711q0 168 83 311t225.5 226t310.5 83q126 0 241 -49t198 -132t132 -198t49 -241q0 -168 -83 -310.5t-226 -225.5t-311 -83t-310.5 83t-225.5 225.5t-83 310.5zM467 946l205 -237l-201 -232l53 -55l195 231l199 -229l53 57l-197 230l201 235l-55 55l-197 -235 l-203 235z" />
<glyph unicode="&#xa1;" d="M102 711q0 168 83 311t225.5 226t310.5 83q126 0 241 -49t198 -132t132 -198t49 -241q0 -168 -83 -310.5t-226 -225.5t-311 -83t-310.5 83t-225.5 225.5t-83 310.5zM467 946l205 -237l-201 -232l53 -55l195 231l199 -229l53 57l-197 230l201 235l-55 55l-197 -235 l-203 235z" />
<glyph unicode="&#xa2;" d="M102 711q0 168 83 311t225.5 226t310.5 83q126 0 241 -49t198 -132t132 -198t49 -241q0 -168 -83 -310.5t-226 -225.5t-311 -83t-310.5 83t-225.5 225.5t-83 310.5zM467 946l205 -237l-201 -232l53 -55l195 231l199 -229l53 57l-197 230l201 235l-55 55l-197 -235 l-203 235z" />
<glyph unicode="&#xa3;" d="M102 711q0 168 83 311t225.5 226t310.5 83q126 0 241 -49t198 -132t132 -198t49 -241q0 -168 -83 -310.5t-226 -225.5t-311 -83t-310.5 83t-225.5 225.5t-83 310.5zM467 946l205 -237l-201 -232l53 -55l195 231l199 -229l53 57l-197 230l201 235l-55 55l-197 -235 l-203 235z" />
<glyph unicode="&#xa4;" d="M102 711q0 168 83 311t225.5 226t310.5 83q126 0 241 -49t198 -132t132 -198t49 -241q0 -168 -83 -310.5t-226 -225.5t-311 -83t-310.5 83t-225.5 225.5t-83 310.5zM467 946l205 -237l-201 -232l53 -55l195 231l199 -229l53 57l-197 230l201 235l-55 55l-197 -235 l-203 235z" />
<glyph unicode="&#xa5;" d="M102 711q0 168 83 311t225.5 226t310.5 83q126 0 241 -49t198 -132t132 -198t49 -241q0 -168 -83 -310.5t-226 -225.5t-311 -83t-310.5 83t-225.5 225.5t-83 310.5zM467 946l205 -237l-201 -232l53 -55l195 231l199 -229l53 57l-197 230l201 235l-55 55l-197 -235 l-203 235z" />
<glyph unicode="&#xa6;" d="M102 711q0 168 83 311t225.5 226t310.5 83q126 0 241 -49t198 -132t132 -198t49 -241q0 -168 -83 -310.5t-226 -225.5t-311 -83t-310.5 83t-225.5 225.5t-83 310.5zM467 946l205 -237l-201 -232l53 -55l195 231l199 -229l53 57l-197 230l201 235l-55 55l-197 -235 l-203 235z" />
<glyph unicode="&#xa7;" d="M102 711q0 168 83 311t225.5 226t310.5 83q126 0 241 -49t198 -132t132 -198t49 -241q0 -168 -83 -310.5t-226 -225.5t-311 -83t-310.5 83t-225.5 225.5t-83 310.5zM467 946l205 -237l-201 -232l53 -55l195 231l199 -229l53 57l-197 230l201 235l-55 55l-197 -235 l-203 235z" />
<glyph unicode="&#xa8;" horiz-adv-x="841" d="M162 1380q0 32 19 53t50 21q30 0 50 -20.5t20 -53.5q0 -30 -20.5 -49.5t-49.5 -19.5q-31 0 -50 20t-19 49zM537 1380q0 32 19 53t50 21q30 0 50 -20.5t20 -53.5q0 -30 -20.5 -49.5t-49.5 -19.5q-31 0 -50 20t-19 49z" />
<glyph unicode="&#xa9;" d="M102 711q0 168 83 311t225.5 226t310.5 83q126 0 241 -49t198 -132t132 -198t49 -241q0 -168 -83 -310.5t-226 -225.5t-311 -83t-310.5 83t-225.5 225.5t-83 310.5zM467 946l205 -237l-201 -232l53 -55l195 231l199 -229l53 57l-197 230l201 235l-55 55l-197 -235 l-203 235z" />
<glyph unicode="&#xaa;" d="M102 711q0 168 83 311t225.5 226t310.5 83q126 0 241 -49t198 -132t132 -198t49 -241q0 -168 -83 -310.5t-226 -225.5t-311 -83t-310.5 83t-225.5 225.5t-83 310.5zM467 946l205 -237l-201 -232l53 -55l195 231l199 -229l53 57l-197 230l201 235l-55 55l-197 -235 l-203 235z" />
<glyph unicode="&#xab;" d="M102 711q0 168 83 311t225.5 226t310.5 83q126 0 241 -49t198 -132t132 -198t49 -241q0 -168 -83 -310.5t-226 -225.5t-311 -83t-310.5 83t-225.5 225.5t-83 310.5zM467 946l205 -237l-201 -232l53 -55l195 231l199 -229l53 57l-197 230l201 235l-55 55l-197 -235 l-203 235z" />
<glyph unicode="&#xac;" d="M102 711q0 168 83 311t225.5 226t310.5 83q126 0 241 -49t198 -132t132 -198t49 -241q0 -168 -83 -310.5t-226 -225.5t-311 -83t-310.5 83t-225.5 225.5t-83 310.5zM467 946l205 -237l-201 -232l53 -55l195 231l199 -229l53 57l-197 230l201 235l-55 55l-197 -235 l-203 235z" />
<glyph unicode="&#xad;" d="M102 711q0 168 83 311t225.5 226t310.5 83q126 0 241 -49t198 -132t132 -198t49 -241q0 -168 -83 -310.5t-226 -225.5t-311 -83t-310.5 83t-225.5 225.5t-83 310.5zM467 946l205 -237l-201 -232l53 -55l195 231l199 -229l53 57l-197 230l201 235l-55 55l-197 -235 l-203 235z" />
<glyph unicode="&#xae;" d="M102 711q0 168 83 311t225.5 226t310.5 83q126 0 241 -49t198 -132t132 -198t49 -241q0 -168 -83 -310.5t-226 -225.5t-311 -83t-310.5 83t-225.5 225.5t-83 310.5zM467 946l205 -237l-201 -232l53 -55l195 231l199 -229l53 57l-197 230l201 235l-55 55l-197 -235 l-203 235z" />
<glyph unicode="&#xaf;" horiz-adv-x="892" d="M180 1352v80h502v-80h-502z" />
<glyph unicode="&#xb0;" d="M102 711q0 168 83 311t225.5 226t310.5 83q126 0 241 -49t198 -132t132 -198t49 -241q0 -168 -83 -310.5t-226 -225.5t-311 -83t-310.5 83t-225.5 225.5t-83 310.5zM467 946l205 -237l-201 -232l53 -55l195 231l199 -229l53 57l-197 230l201 235l-55 55l-197 -235 l-203 235z" />
<glyph unicode="&#xb1;" d="M102 711q0 168 83 311t225.5 226t310.5 83q126 0 241 -49t198 -132t132 -198t49 -241q0 -168 -83 -310.5t-226 -225.5t-311 -83t-310.5 83t-225.5 225.5t-83 310.5zM467 946l205 -237l-201 -232l53 -55l195 231l199 -229l53 57l-197 230l201 235l-55 55l-197 -235 l-203 235z" />
<glyph unicode="&#xb2;" d="M102 711q0 168 83 311t225.5 226t310.5 83q126 0 241 -49t198 -132t132 -198t49 -241q0 -168 -83 -310.5t-226 -225.5t-311 -83t-310.5 83t-225.5 225.5t-83 310.5zM467 946l205 -237l-201 -232l53 -55l195 231l199 -229l53 57l-197 230l201 235l-55 55l-197 -235 l-203 235z" />
<glyph unicode="&#xb3;" d="M102 711q0 168 83 311t225.5 226t310.5 83q126 0 241 -49t198 -132t132 -198t49 -241q0 -168 -83 -310.5t-226 -225.5t-311 -83t-310.5 83t-225.5 225.5t-83 310.5zM467 946l205 -237l-201 -232l53 -55l195 231l199 -229l53 57l-197 230l201 235l-55 55l-197 -235 l-203 235z" />
<glyph unicode="&#xb4;" horiz-adv-x="552" d="M150 1176v6l149 254l78 -41l-148 -219h-79z" />
<glyph unicode="&#xb5;" d="M102 711q0 168 83 311t225.5 226t310.5 83q126 0 241 -49t198 -132t132 -198t49 -241q0 -168 -83 -310.5t-226 -225.5t-311 -83t-310.5 83t-225.5 225.5t-83 310.5zM467 946l205 -237l-201 -232l53 -55l195 231l199 -229l53 57l-197 230l201 235l-55 55l-197 -235 l-203 235z" />
<glyph unicode="&#xb6;" d="M102 711q0 168 83 311t225.5 226t310.5 83q126 0 241 -49t198 -132t132 -198t49 -241q0 -168 -83 -310.5t-226 -225.5t-311 -83t-310.5 83t-225.5 225.5t-83 310.5zM467 946l205 -237l-201 -232l53 -55l195 231l199 -229l53 57l-197 230l201 235l-55 55l-197 -235 l-203 235z" />
<glyph unicode="&#xb7;" d="M102 711q0 168 83 311t225.5 226t310.5 83q126 0 241 -49t198 -132t132 -198t49 -241q0 -168 -83 -310.5t-226 -225.5t-311 -83t-310.5 83t-225.5 225.5t-83 310.5zM467 946l205 -237l-201 -232l53 -55l195 231l199 -229l53 57l-197 230l201 235l-55 55l-197 -235 l-203 235z" />
<glyph unicode="&#xb8;" horiz-adv-x="706" d="M188 -395l27 63q35 -29 91 -42t100 1q46 19 62 66.5t-9 87.5q-19 34 -65 48.5t-93 8.5l37 182h72l-27 -122q46 -5 86 -27t57 -53q40 -80 9.5 -155.5t-105.5 -102.5q-60 -21 -129.5 -8t-112.5 53z" />
<glyph unicode="&#xb9;" d="M102 711q0 168 83 311t225.5 226t310.5 83q126 0 241 -49t198 -132t132 -198t49 -241q0 -168 -83 -310.5t-226 -225.5t-311 -83t-310.5 83t-225.5 225.5t-83 310.5zM467 946l205 -237l-201 -232l53 -55l195 231l199 -229l53 57l-197 230l201 235l-55 55l-197 -235 l-203 235z" />
<glyph unicode="&#xba;" d="M102 711q0 168 83 311t225.5 226t310.5 83q126 0 241 -49t198 -132t132 -198t49 -241q0 -168 -83 -310.5t-226 -225.5t-311 -83t-310.5 83t-225.5 225.5t-83 310.5zM467 946l205 -237l-201 -232l53 -55l195 231l199 -229l53 57l-197 230l201 235l-55 55l-197 -235 l-203 235z" />
<glyph unicode="&#xbb;" d="M102 711q0 168 83 311t225.5 226t310.5 83q126 0 241 -49t198 -132t132 -198t49 -241q0 -168 -83 -310.5t-226 -225.5t-311 -83t-310.5 83t-225.5 225.5t-83 310.5zM467 946l205 -237l-201 -232l53 -55l195 231l199 -229l53 57l-197 230l201 235l-55 55l-197 -235 l-203 235z" />
<glyph unicode="&#xbc;" d="M102 711q0 168 83 311t225.5 226t310.5 83q126 0 241 -49t198 -132t132 -198t49 -241q0 -168 -83 -310.5t-226 -225.5t-311 -83t-310.5 83t-225.5 225.5t-83 310.5zM467 946l205 -237l-201 -232l53 -55l195 231l199 -229l53 57l-197 230l201 235l-55 55l-197 -235 l-203 235z" />
<glyph unicode="&#xbd;" d="M102 711q0 168 83 311t225.5 226t310.5 83q126 0 241 -49t198 -132t132 -198t49 -241q0 -168 -83 -310.5t-226 -225.5t-311 -83t-310.5 83t-225.5 225.5t-83 310.5zM467 946l205 -237l-201 -232l53 -55l195 231l199 -229l53 57l-197 230l201 235l-55 55l-197 -235 l-203 235z" />
<glyph unicode="&#xbe;" d="M102 711q0 168 83 311t225.5 226t310.5 83q126 0 241 -49t198 -132t132 -198t49 -241q0 -168 -83 -310.5t-226 -225.5t-311 -83t-310.5 83t-225.5 225.5t-83 310.5zM467 946l205 -237l-201 -232l53 -55l195 231l199 -229l53 57l-197 230l201 235l-55 55l-197 -235 l-203 235z" />
<glyph unicode="&#xbf;" d="M102 711q0 168 83 311t225.5 226t310.5 83q126 0 241 -49t198 -132t132 -198t49 -241q0 -168 -83 -310.5t-226 -225.5t-311 -83t-310.5 83t-225.5 225.5t-83 310.5zM467 946l205 -237l-201 -232l53 -55l195 231l199 -229l53 57l-197 230l201 235l-55 55l-197 -235 l-203 235z" />
<glyph unicode="&#xc0;" horiz-adv-x="1249" d="M33 0v12l571 1426h43l565 -1426v-12h-100l-162 414h-653l-162 -414h-102zM330 504h588l-293 764zM440 1782v10l82 41l148 -268v-6h-84z" />
<glyph unicode="&#xc1;" horiz-adv-x="1249" d="M33 0v12l571 1426h43l565 -1426v-12h-100l-162 414h-653l-162 -414h-102zM330 504h588l-293 764zM571 1554v7l146 268l82 -41v-10l-146 -224h-82z" />
<glyph unicode="&#xc2;" horiz-adv-x="1249" d="M33 0v12l571 1426h43l565 -1426v-12h-100l-162 414h-653l-162 -414h-102zM330 504h588l-293 764zM338 1532v10l240 254h94l237 -256v-8h-98l-184 201l-189 -201h-100z" />
<glyph unicode="&#xc3;" horiz-adv-x="1249" d="M33 0v12l571 1426h43l565 -1426v-12h-100l-162 414h-653l-162 -414h-102zM330 504h588l-293 764zM365 1591q47 86 106 111q34 17 86 10t92 -43q61 -41 92 -39q46 3 88 80q14 -6 54 -33q-35 -76 -88 -104q-33 -23 -84.5 -18t-94.5 42q-54 42 -98 39q-52 -3 -94 -80l-37 23 q-16 8 -22 12z" />
<glyph unicode="&#xc4;" horiz-adv-x="1249" d="M33 0v12l571 1426h43l565 -1426v-12h-100l-162 414h-653l-162 -414h-102zM330 504h588l-293 764zM369 1632q0 29 18.5 48.5t44.5 19.5q27 0 45.5 -19t18.5 -49q0 -27 -18.5 -45t-45.5 -18t-45 19t-18 44zM756 1632q0 29 17.5 48.5t45.5 19.5q27 0 45.5 -19t18.5 -49 q0 -27 -19 -45t-45 -18q-28 0 -45.5 18.5t-17.5 44.5z" />
<glyph unicode="&#xc5;" horiz-adv-x="1249" d="M33 0v12l565 1413q-72 7 -122 59.5t-50 147.5q0 109 67 166.5t154 44.5q71 -13 120.5 -68t49.5 -143q0 -89 -49 -144t-117 -61l561 -1415v-12h-96l-164 414h-655l-164 -414h-100zM330 504h590l-295 762zM496 1632q0 -61 33.5 -96.5t82.5 -38.5q55 -3 95.5 32.5 t40.5 102.5q0 64 -38 100.5t-89 36.5t-88 -36.5t-37 -100.5z" />
<glyph unicode="&#xc6;" horiz-adv-x="1427" d="M16 0v14l643 1420h656v-88h-522v-558h497v-88h-497v-612h530v-88h-618v442h-394l-196 -442h-99zM346 530h359q2 221 2.5 502t-0.5 303z" />
<glyph unicode="&#xc7;" horiz-adv-x="1331" d="M96 717q0 334 169.5 534.5t443.5 200.5q190 0 330 -105t204 -313h-96q-66 162 -169 243t-269 81q-111 3 -205.5 -38.5t-164.5 -121t-109.5 -203.5t-39.5 -278q0 -288 142.5 -464.5t376.5 -176.5q159 0 277.5 86t168.5 264h96q-50 -197 -185 -312t-312 -126l-23 -113 q87 -5 134 -63t26 -140q-21 -79 -84.5 -119t-145 -31.5t-155.5 64.5l33 78q37 -40 94 -55.5t108.5 4t69.5 74.5q14 45 -12 78.5t-69 45t-83 3.5l33 172q-123 3 -229.5 54t-185.5 142.5t-124 229.5t-45 305z" />
<glyph unicode="&#xc8;" horiz-adv-x="993" d="M172 0v1434h705v-91h-607v-557h582v-92h-582v-600h615v-94h-713zM383 1798v10l82 41l145 -268v-6h-82z" />
<glyph unicode="&#xc9;" horiz-adv-x="993" d="M172 0v1434h705v-91h-607v-557h582v-92h-582v-600h615v-94h-713zM467 1569v6l147 268l82 -41v-10l-145 -223h-84z" />
<glyph unicode="&#xca;" horiz-adv-x="993" d="M172 0v1434h705v-91h-607v-557h582v-92h-582v-600h615v-94h-713zM260 1579v10l229 250h91l227 -252v-8h-96l-176 197l-179 -197h-96z" />
<glyph unicode="&#xcb;" horiz-adv-x="993" d="M172 0v1434h705v-91h-607v-557h582v-92h-582v-600h615v-94h-713zM279 1655q0 32 20 53t49 21q30 0 50 -20.5t20 -53.5q0 -30 -20 -50t-50 -20t-49.5 20.5t-19.5 49.5zM655 1655q0 32 20 53t50 21t50 -20.5t20 -53.5q0 -30 -20 -50t-50 -20t-50 21t-20 49z" />
<glyph unicode="&#xcc;" horiz-adv-x="665" d="M55 0v84h228v1266h-211v84h522v-84h-213v-1266h227v-84h-553zM160 1780v10l82 41l145 -268v-7h-82z" />
<glyph unicode="&#xcd;" horiz-adv-x="665" d="M55 0v84h228v1266h-211v84h522v-84h-213v-1266h227v-84h-553zM272 1559v6l148 268l82 -41v-10l-146 -223h-84z" />
<glyph unicode="&#xce;" horiz-adv-x="665" d="M55 0v84h228v1266h-211v84h522v-84h-213v-1266h227v-84h-553zM74 1536v10l223 240h88l219 -242v-8h-92l-172 188l-172 -188h-94z" />
<glyph unicode="&#xcf;" horiz-adv-x="665" d="M55 0v84h228v1266h-211v84h522v-84h-213v-1266h227v-84h-553zM111 1626q0 32 20 53t49 21q30 0 50 -20.5t20 -53.5q0 -30 -20 -50t-50 -20t-49.5 20.5t-19.5 49.5zM416 1626q0 32 20 53t49 21q30 0 50 -20.5t20 -53.5q0 -30 -20 -50t-50 -20t-49.5 20.5t-19.5 49.5z" />
<glyph unicode="&#xd0;" horiz-adv-x="1282" d="M16 666v82h158v686h422q264 0 427 -192.5t163 -524.5q0 -150 -40.5 -280.5t-114.5 -227.5t-186 -153t-249 -56h-422v666h-158zM268 94h320q224 0 363 165t139 456q0 283 -134 454.5t-366 171.5h-322v-593h230v-82h-230v-572z" />
<glyph unicode="&#xd1;" horiz-adv-x="1296" d="M172 0v1436h37l829 -1203l-8 517v686h94v-1436h-30l-834 1202l6 -481v-721h-94zM389 1589q27 57 67.5 84t85.5 25t91 -29q13 -5 32.5 -19t28.5 -18q52 -29 83 -17.5t63 66.5l59 -32q-33 -70 -92.5 -102.5t-120.5 -0.5q-17 7 -80 49q-50 34 -86 26t-69 -67z" />
<glyph unicode="&#xd2;" horiz-adv-x="1425" d="M96 717q0 171 47.5 311.5t130.5 233t195 142.5t242 50q133 0 246 -50t195.5 -142.5t129.5 -232.5t47 -312q0 -343 -170 -540t-448 -197q-131 0 -243.5 50t-195 142.5t-129.5 233t-47 311.5zM193 717q0 -298 144.5 -470.5t373.5 -172.5q233 0 377.5 169t144.5 474 q0 302 -143 472.5t-377 170.5q-230 0 -375 -174t-145 -469zM543 1788l78 41l149 -254v-6h-80z" />
<glyph unicode="&#xd3;" horiz-adv-x="1425" d="M96 717q0 171 47.5 311.5t130.5 233t195 142.5t242 50q133 0 246 -50t195.5 -142.5t129.5 -232.5t47 -312q0 -343 -170 -540t-448 -197q-131 0 -243.5 50t-195 142.5t-129.5 233t-47 311.5zM193 717q0 -298 144.5 -470.5t373.5 -172.5q233 0 377.5 169t144.5 474 q0 302 -143 472.5t-377 170.5q-230 0 -375 -174t-145 -469zM668 1571v6l149 254l78 -41l-147 -219h-80z" />
<glyph unicode="&#xd4;" horiz-adv-x="1425" d="M96 717q0 171 47.5 311.5t130.5 233t195 142.5t242 50q133 0 246 -50t195.5 -142.5t129.5 -232.5t47 -312q0 -343 -170 -540t-448 -197q-131 0 -243.5 50t-195 142.5t-129.5 233t-47 311.5zM193 717q0 -298 144.5 -470.5t373.5 -172.5q233 0 377.5 169t144.5 474 q0 302 -143 472.5t-377 170.5q-230 0 -375 -174t-145 -469zM438 1565v10l240 254h94l238 -256v-8h-99l-186 200l-186 -200h-101z" />
<glyph unicode="&#xd5;" horiz-adv-x="1425" d="M96 717q0 171 47.5 311.5t130.5 233t195 142.5t242 50q133 0 246 -50t195.5 -142.5t129.5 -232.5t47 -312q0 -343 -170 -540t-448 -197q-131 0 -243.5 50t-195 142.5t-129.5 233t-47 311.5zM193 717q0 -298 144.5 -470.5t373.5 -172.5q233 0 377.5 169t144.5 474 q0 302 -143 472.5t-377 170.5q-230 0 -375 -174t-145 -469zM471 1642q27 59 68 87.5t87 26t93 -31.5q8 -4 28 -17.5t33 -18.5q52 -30 83.5 -18t64.5 69l59 -33q-32 -73 -92.5 -106.5t-122.5 -2.5q-17 8 -43.5 26.5t-38.5 25.5q-50 36 -87 28t-71 -69z" />
<glyph unicode="&#xd6;" horiz-adv-x="1425" d="M96 717q0 171 47.5 311.5t130.5 233t195 142.5t242 50q133 0 246 -50t195.5 -142.5t129.5 -232.5t47 -312q0 -343 -170 -540t-448 -197q-131 0 -243.5 50t-195 142.5t-129.5 233t-47 311.5zM193 717q0 -298 144.5 -470.5t373.5 -172.5q233 0 377.5 169t144.5 474 q0 302 -143 472.5t-377 170.5q-230 0 -375 -174t-145 -469zM463 1673q0 32 19 53t50 21q30 0 50 -20.5t20 -53.5q0 -30 -20.5 -49.5t-49.5 -19.5q-31 0 -50 20t-19 49zM838 1673q0 32 19 53t50 21q30 0 50 -20.5t20 -53.5q0 -30 -20.5 -49.5t-49.5 -19.5q-31 0 -50 20 t-19 49z" />
<glyph unicode="&#xd7;" d="M102 711q0 168 83 311t225.5 226t310.5 83q126 0 241 -49t198 -132t132 -198t49 -241q0 -168 -83 -310.5t-226 -225.5t-311 -83t-310.5 83t-225.5 225.5t-83 310.5zM467 946l205 -237l-201 -232l53 -55l195 231l199 -229l53 57l-197 230l201 235l-55 55l-197 -235 l-203 235z" />
<glyph unicode="&#xd8;" horiz-adv-x="1427" d="M98 717q0 171 47.5 311.5t130.5 233.5t195 143.5t242 50.5q159 0 295 -76l98 195h82v-8l-117 -230q123 -93 191.5 -251.5t68.5 -368.5q0 -344 -170 -542t-448 -198q-159 0 -291 72l-103 -203h-83v11l120 237q-122 93 -190 252.5t-68 370.5zM195 717q0 -180 54 -317 t152 -218l564 1114q-111 66 -250 66q-229 0 -374.5 -175t-145.5 -470zM465 135q114 -63 248 -63q233 0 377.5 170t144.5 475q0 361 -207 536z" />
<glyph unicode="&#xd9;" horiz-adv-x="1232" d="M160 492v942h98v-940q0 -188 98 -302t262 -114q157 0 259 108.5t102 307.5v940h94v-942q0 -228 -124.5 -369t-330.5 -141q-200 0 -329 136t-129 374zM457 1788v10l84 41l145 -268v-6h-84z" />
<glyph unicode="&#xda;" horiz-adv-x="1232" d="M160 492v942h98v-940q0 -188 98 -302t262 -114q157 0 259 108.5t102 307.5v940h94v-942q0 -228 -124.5 -369t-330.5 -141q-200 0 -329 136t-129 374zM553 1581v6l139 256l84 -41v-10l-139 -211h-84z" />
<glyph unicode="&#xdb;" horiz-adv-x="1232" d="M160 492v942h98v-940q0 -188 98 -302t262 -114q157 0 259 108.5t102 307.5v940h94v-942q0 -228 -124.5 -369t-330.5 -141q-200 0 -329 136t-129 374zM338 1575v10l237 254h97l235 -256v-8h-98l-184 201l-189 -201h-98z" />
<glyph unicode="&#xdc;" horiz-adv-x="1232" d="M160 492v942h98v-940q0 -188 98 -302t262 -114q157 0 259 108.5t102 307.5v940h94v-942q0 -228 -124.5 -369t-330.5 -141q-200 0 -329 136t-129 374zM360 1651q0 32 21 53.5t51 21.5t51 -21t21 -54q0 -30 -22 -51t-50 -21q-30 0 -51 22t-21 50zM750 1651q0 32 20.5 53.5 t50.5 21.5t51 -21t21 -54q0 -30 -22 -51t-50 -21q-30 0 -50.5 21.5t-20.5 50.5z" />
<glyph unicode="&#xdd;" horiz-adv-x="1122" d="M63 1421v13h107l195 -365l194 -362h4l195 362l194 365h105v-15l-447 -823v-596h-98v596zM510 1532v6l145 268l82 -41v-10l-145 -223h-82z" />
<glyph unicode="&#xde;" horiz-adv-x="1138" d="M172 0v1434h98v-234h371q90 0 166.5 -28.5t135.5 -85.5t92.5 -149t33.5 -212q0 -216 -119.5 -344.5t-308.5 -128.5h-371v-252h-98zM268 340h373q70 0 129 21.5t106.5 65.5t74 120.5t26.5 179.5q0 186 -92.5 286.5t-243.5 100.5h-373v-774z" />
<glyph unicode="&#xdf;" horiz-adv-x="1038" d="M162 2v1030q0 452 436 422q23 -2 46 -5t49 -9.5t44 -10.5t47 -13.5t39.5 -12.5t40.5 -13.5t33 -11.5v-37l-309 -483q71 15 138.5 -13.5t117 -87t80 -144.5t30.5 -181q0 -182 -72.5 -296.5t-199.5 -147.5q-105 -27 -233 10v82q88 -28 176 -14q233 39 233 366 q0 154 -79 249t-199 95q-62 0 -115 -20v51l317 516q-104 49 -243 49q-62 0 -109.5 -14t-89 -49.5t-64 -104.5t-22.5 -170v-1032h-92z" />
<glyph unicode="&#xe0;" horiz-adv-x="1249" d="M33 0v12l571 1426h43l565 -1426v-12h-100l-162 414h-653l-162 -414h-102zM330 504h588l-293 764zM440 1782v10l82 41l148 -268v-6h-84z" />
<glyph unicode="&#xe1;" horiz-adv-x="1249" d="M33 0v12l571 1426h43l565 -1426v-12h-100l-162 414h-653l-162 -414h-102zM330 504h588l-293 764zM571 1554v7l146 268l82 -41v-10l-146 -224h-82z" />
<glyph unicode="&#xe2;" horiz-adv-x="1249" d="M33 0v12l571 1426h43l565 -1426v-12h-100l-162 414h-653l-162 -414h-102zM330 504h588l-293 764zM338 1532v10l240 254h94l237 -256v-8h-98l-184 201l-189 -201h-100z" />
<glyph unicode="&#xe3;" horiz-adv-x="1249" d="M33 0v12l571 1426h43l565 -1426v-12h-100l-162 414h-653l-162 -414h-102zM330 504h588l-293 764zM365 1591q47 86 106 111q34 17 86 10t92 -43q61 -41 92 -39q46 3 88 80q14 -6 54 -33q-35 -76 -88 -104q-33 -23 -84.5 -18t-94.5 42q-54 42 -98 39q-52 -3 -94 -80l-37 23 q-16 8 -22 12z" />
<glyph unicode="&#xe4;" horiz-adv-x="1249" d="M33 0v12l571 1426h43l565 -1426v-12h-100l-162 414h-653l-162 -414h-102zM330 504h588l-293 764zM369 1632q0 29 18.5 48.5t44.5 19.5q27 0 45.5 -19t18.5 -49q0 -27 -18.5 -45t-45.5 -18t-45 19t-18 44zM756 1632q0 29 17.5 48.5t45.5 19.5q27 0 45.5 -19t18.5 -49 q0 -27 -19 -45t-45 -18q-28 0 -45.5 18.5t-17.5 44.5z" />
<glyph unicode="&#xe5;" horiz-adv-x="1249" d="M33 0v12l565 1413q-72 7 -122 59.5t-50 147.5q0 109 67 166.5t154 44.5q71 -13 120.5 -68t49.5 -143q0 -89 -49 -144t-117 -61l561 -1415v-12h-96l-164 414h-655l-164 -414h-100zM330 504h590l-295 762zM496 1632q0 -61 33.5 -96.5t82.5 -38.5q55 -3 95.5 32.5 t40.5 102.5q0 64 -38 100.5t-89 36.5t-88 -36.5t-37 -100.5z" />
<glyph unicode="&#xe6;" horiz-adv-x="1427" d="M16 0v14l643 1420h656v-88h-522v-558h497v-88h-497v-612h530v-88h-618v442h-394l-196 -442h-99zM346 530h359q2 221 2.5 502t-0.5 303z" />
<glyph unicode="&#xe7;" horiz-adv-x="1331" d="M96 717q0 334 169.5 534.5t443.5 200.5q190 0 330 -105t204 -313h-96q-66 162 -169 243t-269 81q-111 3 -205.5 -38.5t-164.5 -121t-109.5 -203.5t-39.5 -278q0 -288 142.5 -464.5t376.5 -176.5q159 0 277.5 86t168.5 264h96q-50 -197 -185 -312t-312 -126l-23 -113 q87 -5 134 -63t26 -140q-21 -79 -84.5 -119t-145 -31.5t-155.5 64.5l33 78q37 -40 94 -55.5t108.5 4t69.5 74.5q14 45 -12 78.5t-69 45t-83 3.5l33 172q-123 3 -229.5 54t-185.5 142.5t-124 229.5t-45 305z" />
<glyph unicode="&#xe8;" horiz-adv-x="993" d="M172 0v1434h705v-91h-607v-557h582v-92h-582v-600h615v-94h-713zM383 1798v10l82 41l145 -268v-6h-82z" />
<glyph unicode="&#xe9;" horiz-adv-x="993" d="M172 0v1434h705v-91h-607v-557h582v-92h-582v-600h615v-94h-713zM467 1569v6l147 268l82 -41v-10l-145 -223h-84z" />
<glyph unicode="&#xea;" horiz-adv-x="993" d="M172 0v1434h705v-91h-607v-557h582v-92h-582v-600h615v-94h-713zM260 1579v10l229 250h91l227 -252v-8h-96l-176 197l-179 -197h-96z" />
<glyph unicode="&#xeb;" horiz-adv-x="993" d="M172 0v1434h705v-91h-607v-557h582v-92h-582v-600h615v-94h-713zM279 1655q0 32 20 53t49 21q30 0 50 -20.5t20 -53.5q0 -30 -20 -50t-50 -20t-49.5 20.5t-19.5 49.5zM655 1655q0 32 20 53t50 21t50 -20.5t20 -53.5q0 -30 -20 -50t-50 -20t-50 21t-20 49z" />
<glyph unicode="&#xec;" horiz-adv-x="665" d="M55 0v84h228v1266h-211v84h522v-84h-213v-1266h227v-84h-553zM160 1780v10l82 41l145 -268v-7h-82z" />
<glyph unicode="&#xed;" horiz-adv-x="665" d="M55 0v84h228v1266h-211v84h522v-84h-213v-1266h227v-84h-553zM272 1559v6l148 268l82 -41v-10l-146 -223h-84z" />
<glyph unicode="&#xee;" horiz-adv-x="665" d="M55 0v84h228v1266h-211v84h522v-84h-213v-1266h227v-84h-553zM74 1536v10l223 240h88l219 -242v-8h-92l-172 188l-172 -188h-94z" />
<glyph unicode="&#xef;" horiz-adv-x="665" d="M55 0v84h228v1266h-211v84h522v-84h-213v-1266h227v-84h-553zM111 1626q0 32 20 53t49 21q30 0 50 -20.5t20 -53.5q0 -30 -20 -50t-50 -20t-49.5 20.5t-19.5 49.5zM416 1626q0 32 20 53t49 21q30 0 50 -20.5t20 -53.5q0 -30 -20 -50t-50 -20t-49.5 20.5t-19.5 49.5z" />
<glyph unicode="&#xf0;" horiz-adv-x="1306" d="M41 666v82h158v686h422q264 0 426.5 -192.5t162.5 -524.5q0 -201 -68.5 -362.5t-204 -258t-316.5 -96.5h-422v666h-158zM293 94h319q224 0 363 165t139 456q0 283 -134 454.5t-366 171.5h-321v-593h229v-82h-229v-572z" />
<glyph unicode="&#xf1;" horiz-adv-x="1296" d="M172 0v1436h37l829 -1203l-8 517v686h94v-1436h-30l-834 1202l6 -481v-721h-94zM389 1589q27 57 67.5 84t85.5 25t91 -29q13 -5 32.5 -19t28.5 -18q52 -29 83 -17.5t63 66.5l59 -32q-33 -70 -92.5 -102.5t-120.5 -0.5q-17 7 -80 49q-50 34 -86 26t-69 -67z" />
<glyph unicode="&#xf2;" horiz-adv-x="1425" d="M96 717q0 171 47.5 311.5t130.5 233t195 142.5t242 50q133 0 246 -50t195.5 -142.5t129.5 -232.5t47 -312q0 -343 -170 -540t-448 -197q-131 0 -243.5 50t-195 142.5t-129.5 233t-47 311.5zM193 717q0 -298 144.5 -470.5t373.5 -172.5q233 0 377.5 169t144.5 474 q0 302 -143 472.5t-377 170.5q-230 0 -375 -174t-145 -469zM543 1788l78 41l149 -254v-6h-80z" />
<glyph unicode="&#xf3;" horiz-adv-x="1425" d="M96 717q0 171 47.5 311.5t130.5 233t195 142.5t242 50q133 0 246 -50t195.5 -142.5t129.5 -232.5t47 -312q0 -343 -170 -540t-448 -197q-131 0 -243.5 50t-195 142.5t-129.5 233t-47 311.5zM193 717q0 -298 144.5 -470.5t373.5 -172.5q233 0 377.5 169t144.5 474 q0 302 -143 472.5t-377 170.5q-230 0 -375 -174t-145 -469zM668 1571v6l149 254l78 -41l-147 -219h-80z" />
<glyph unicode="&#xf4;" horiz-adv-x="1425" d="M96 717q0 171 47.5 311.5t130.5 233t195 142.5t242 50q133 0 246 -50t195.5 -142.5t129.5 -232.5t47 -312q0 -343 -170 -540t-448 -197q-131 0 -243.5 50t-195 142.5t-129.5 233t-47 311.5zM193 717q0 -298 144.5 -470.5t373.5 -172.5q233 0 377.5 169t144.5 474 q0 302 -143 472.5t-377 170.5q-230 0 -375 -174t-145 -469zM438 1565v10l240 254h94l238 -256v-8h-99l-186 200l-186 -200h-101z" />
<glyph unicode="&#xf5;" horiz-adv-x="1425" d="M96 717q0 171 47.5 311.5t130.5 233t195 142.5t242 50q133 0 246 -50t195.5 -142.5t129.5 -232.5t47 -312q0 -343 -170 -540t-448 -197q-131 0 -243.5 50t-195 142.5t-129.5 233t-47 311.5zM193 717q0 -298 144.5 -470.5t373.5 -172.5q233 0 377.5 169t144.5 474 q0 302 -143 472.5t-377 170.5q-230 0 -375 -174t-145 -469zM471 1642q27 59 68 87.5t87 26t93 -31.5q8 -4 28 -17.5t33 -18.5q52 -30 83.5 -18t64.5 69l59 -33q-32 -73 -92.5 -106.5t-122.5 -2.5q-17 8 -43.5 26.5t-38.5 25.5q-50 36 -87 28t-71 -69z" />
<glyph unicode="&#xf6;" horiz-adv-x="1425" d="M96 717q0 171 47.5 311.5t130.5 233t195 142.5t242 50q133 0 246 -50t195.5 -142.5t129.5 -232.5t47 -312q0 -343 -170 -540t-448 -197q-131 0 -243.5 50t-195 142.5t-129.5 233t-47 311.5zM193 717q0 -298 144.5 -470.5t373.5 -172.5q233 0 377.5 169t144.5 474 q0 302 -143 472.5t-377 170.5q-230 0 -375 -174t-145 -469zM463 1673q0 32 19 53t50 21q30 0 50 -20.5t20 -53.5q0 -30 -20.5 -49.5t-49.5 -19.5q-31 0 -50 20t-19 49zM838 1673q0 32 19 53t50 21q30 0 50 -20.5t20 -53.5q0 -30 -20.5 -49.5t-49.5 -19.5q-31 0 -50 20 t-19 49z" />
<glyph unicode="&#xf7;" d="M102 711q0 168 83 311t225.5 226t310.5 83q126 0 241 -49t198 -132t132 -198t49 -241q0 -168 -83 -310.5t-226 -225.5t-311 -83t-310.5 83t-225.5 225.5t-83 310.5zM467 946l205 -237l-201 -232l53 -55l195 231l199 -229l53 57l-197 230l201 235l-55 55l-197 -235 l-203 235z" />
<glyph unicode="&#xf8;" horiz-adv-x="1425" d="M96 717q0 171 47.5 311.5t130.5 233.5t195 143.5t242 50.5q159 0 295 -76l98 195h82v-8l-117 -230q123 -93 191.5 -251.5t68.5 -368.5q0 -344 -170 -542t-448 -198q-159 0 -291 72l-103 -203h-84v11l121 237q-122 93 -190 252.5t-68 370.5zM193 717q0 -180 54 -317 t152 -218l564 1114q-111 66 -250 66q-229 0 -374.5 -175t-145.5 -470zM463 135q114 -63 248 -63q233 0 377.5 170t144.5 475q0 361 -207 536z" />
<glyph unicode="&#xf9;" horiz-adv-x="1232" d="M160 492v942h98v-940q0 -188 98 -302t262 -114q157 0 259 108.5t102 307.5v940h94v-942q0 -228 -124.5 -369t-330.5 -141q-200 0 -329 136t-129 374zM457 1788v10l84 41l145 -268v-6h-84z" />
<glyph unicode="&#xfa;" horiz-adv-x="1232" d="M160 492v942h98v-940q0 -188 98 -302t262 -114q157 0 259 108.5t102 307.5v940h94v-942q0 -228 -124.5 -369t-330.5 -141q-200 0 -329 136t-129 374zM553 1581v6l139 256l84 -41v-10l-139 -211h-84z" />
<glyph unicode="&#xfb;" horiz-adv-x="1232" d="M160 492v942h98v-940q0 -188 98 -302t262 -114q157 0 259 108.5t102 307.5v940h94v-942q0 -228 -124.5 -369t-330.5 -141q-200 0 -329 136t-129 374zM338 1575v10l237 254h97l235 -256v-8h-98l-184 201l-189 -201h-98z" />
<glyph unicode="&#xfc;" horiz-adv-x="1232" d="M160 492v942h98v-940q0 -188 98 -302t262 -114q157 0 259 108.5t102 307.5v940h94v-942q0 -228 -124.5 -369t-330.5 -141q-200 0 -329 136t-129 374zM360 1651q0 32 21 53.5t51 21.5t51 -21t21 -54q0 -30 -22 -51t-50 -21q-30 0 -51 22t-21 50zM750 1651q0 32 20.5 53.5 t50.5 21.5t51 -21t21 -54q0 -30 -22 -51t-50 -21q-30 0 -50.5 21.5t-20.5 50.5z" />
<glyph unicode="&#xfd;" horiz-adv-x="1122" d="M63 1421v13h107l195 -365l194 -362h4l195 362l194 365h105v-15l-447 -823v-596h-98v596zM510 1532v6l145 268l82 -41v-10l-145 -223h-82z" />
<glyph unicode="&#xfe;" horiz-adv-x="1138" d="M172 0v1434h98v-234h371q90 0 166.5 -28.5t135.5 -85.5t92.5 -149t33.5 -212q0 -216 -119.5 -344.5t-308.5 -128.5h-371v-252h-98zM268 340h373q70 0 129 21.5t106.5 65.5t74 120.5t26.5 179.5q0 186 -92.5 286.5t-243.5 100.5h-373v-774z" />
<glyph unicode="&#xff;" horiz-adv-x="1122" d="M63 1421v13h105l194 -365l197 -379h2l199 379l194 365h103v-15l-447 -823v-596h-98v596zM309 1616q0 32 19.5 53t50.5 21q30 0 50 -20.5t20 -53.5q0 -30 -21 -50t-49 -20q-31 0 -50.5 20.5t-19.5 49.5zM684 1616q0 32 19.5 53t50.5 21q30 0 49.5 -20.5t19.5 -53.5 q0 -30 -20.5 -50t-48.5 -20q-31 0 -50.5 20.5t-19.5 49.5z" />
<glyph unicode="&#x152;" horiz-adv-x="1622" d="M98 715q0 350 166.5 542.5t458.5 192.5q118 0 192 -18h592v-86h-528v-558h504v-86h-504v-612h537v-90h-609q-99 -27 -192 -27q-136 0 -248.5 47t-195 138t-128 233t-45.5 324zM193 715q0 -302 138 -478t390 -176q91 0 170 25v1264q-57 12 -166 12q-245 0 -388.5 -163 t-143.5 -484z" />
<glyph unicode="&#x153;" horiz-adv-x="1622" d="M98 715q0 350 166.5 542.5t458.5 192.5q118 0 192 -18h592v-86h-528v-558h504v-86h-504v-612h537v-90h-609q-99 -27 -192 -27q-136 0 -248.5 47t-195 138t-128 233t-45.5 324zM193 715q0 -302 138 -478t390 -176q91 0 170 25v1264q-57 12 -166 12q-245 0 -388.5 -163 t-143.5 -484z" />
<glyph unicode="&#x178;" horiz-adv-x="1122" d="M63 1421v13h105l194 -365l197 -379h2l199 379l194 365h103v-15l-447 -823v-596h-98v596zM309 1616q0 32 19.5 53t50.5 21q30 0 50 -20.5t20 -53.5q0 -30 -21 -50t-49 -20q-31 0 -50.5 20.5t-19.5 49.5zM684 1616q0 32 19.5 53t50.5 21q30 0 49.5 -20.5t19.5 -53.5 q0 -30 -20.5 -50t-48.5 -20q-31 0 -50.5 20.5t-19.5 49.5z" />
<glyph unicode="&#x2c6;" horiz-adv-x="884" d="M152 1176v10l239 254h94l238 -256v-8h-98l-187 200l-186 -200h-100z" />
<glyph unicode="&#x2dc;" horiz-adv-x="755" d="M135 1348q38 80 106 98t132 -23q10 -5 29.5 -17t29.5 -17q51 -28 80 -17t61 64l58 -31q-31 -67 -89 -97t-118 -1q-17 7 -45.5 26t-32.5 21q-48 33 -83 25.5t-68 -64.5z" />
<glyph unicode="&#x2000;" horiz-adv-x="924" />
<glyph unicode="&#x2001;" horiz-adv-x="1849" />
<glyph unicode="&#x2002;" horiz-adv-x="924" />
<glyph unicode="&#x2003;" horiz-adv-x="1849" />
<glyph unicode="&#x2004;" horiz-adv-x="616" />
<glyph unicode="&#x2005;" horiz-adv-x="462" />
<glyph unicode="&#x2006;" horiz-adv-x="308" />
<glyph unicode="&#x2007;" horiz-adv-x="308" />
<glyph unicode="&#x2008;" horiz-adv-x="231" />
<glyph unicode="&#x2009;" horiz-adv-x="369" />
<glyph unicode="&#x200a;" horiz-adv-x="102" />
<glyph unicode="&#x2010;" d="M102 711q0 168 83 311t225.5 226t310.5 83q126 0 241 -49t198 -132t132 -198t49 -241q0 -168 -83 -310.5t-226 -225.5t-311 -83t-310.5 83t-225.5 225.5t-83 310.5zM467 946l205 -237l-201 -232l53 -55l195 231l199 -229l53 57l-197 230l201 235l-55 55l-197 -235 l-203 235z" />
<glyph unicode="&#x2011;" d="M102 711q0 168 83 311t225.5 226t310.5 83q126 0 241 -49t198 -132t132 -198t49 -241q0 -168 -83 -310.5t-226 -225.5t-311 -83t-310.5 83t-225.5 225.5t-83 310.5zM467 946l205 -237l-201 -232l53 -55l195 231l199 -229l53 57l-197 230l201 235l-55 55l-197 -235 l-203 235z" />
<glyph unicode="&#x2012;" d="M102 711q0 168 83 311t225.5 226t310.5 83q126 0 241 -49t198 -132t132 -198t49 -241q0 -168 -83 -310.5t-226 -225.5t-311 -83t-310.5 83t-225.5 225.5t-83 310.5zM467 946l205 -237l-201 -232l53 -55l195 231l199 -229l53 57l-197 230l201 235l-55 55l-197 -235 l-203 235z" />
<glyph unicode="&#x2013;" d="M102 711q0 168 83 311t225.5 226t310.5 83q126 0 241 -49t198 -132t132 -198t49 -241q0 -168 -83 -310.5t-226 -225.5t-311 -83t-310.5 83t-225.5 225.5t-83 310.5zM467 946l205 -237l-201 -232l53 -55l195 231l199 -229l53 57l-197 230l201 235l-55 55l-197 -235 l-203 235z" />
<glyph unicode="&#x2014;" d="M102 711q0 168 83 311t225.5 226t310.5 83q126 0 241 -49t198 -132t132 -198t49 -241q0 -168 -83 -310.5t-226 -225.5t-311 -83t-310.5 83t-225.5 225.5t-83 310.5zM467 946l205 -237l-201 -232l53 -55l195 231l199 -229l53 57l-197 230l201 235l-55 55l-197 -235 l-203 235z" />
<glyph unicode="&#x2018;" d="M102 711q0 168 83 311t225.5 226t310.5 83q126 0 241 -49t198 -132t132 -198t49 -241q0 -168 -83 -310.5t-226 -225.5t-311 -83t-310.5 83t-225.5 225.5t-83 310.5zM467 946l205 -237l-201 -232l53 -55l195 231l199 -229l53 57l-197 230l201 235l-55 55l-197 -235 l-203 235z" />
<glyph unicode="&#x2019;" d="M102 711q0 168 83 311t225.5 226t310.5 83q126 0 241 -49t198 -132t132 -198t49 -241q0 -168 -83 -310.5t-226 -225.5t-311 -83t-310.5 83t-225.5 225.5t-83 310.5zM467 946l205 -237l-201 -232l53 -55l195 231l199 -229l53 57l-197 230l201 235l-55 55l-197 -235 l-203 235z" />
<glyph unicode="&#x201a;" d="M102 711q0 168 83 311t225.5 226t310.5 83q126 0 241 -49t198 -132t132 -198t49 -241q0 -168 -83 -310.5t-226 -225.5t-311 -83t-310.5 83t-225.5 225.5t-83 310.5zM467 946l205 -237l-201 -232l53 -55l195 231l199 -229l53 57l-197 230l201 235l-55 55l-197 -235 l-203 235z" />
<glyph unicode="&#x201c;" d="M102 711q0 168 83 311t225.5 226t310.5 83q126 0 241 -49t198 -132t132 -198t49 -241q0 -168 -83 -310.5t-226 -225.5t-311 -83t-310.5 83t-225.5 225.5t-83 310.5zM467 946l205 -237l-201 -232l53 -55l195 231l199 -229l53 57l-197 230l201 235l-55 55l-197 -235 l-203 235z" />
<glyph unicode="&#x201d;" d="M102 711q0 168 83 311t225.5 226t310.5 83q126 0 241 -49t198 -132t132 -198t49 -241q0 -168 -83 -310.5t-226 -225.5t-311 -83t-310.5 83t-225.5 225.5t-83 310.5zM467 946l205 -237l-201 -232l53 -55l195 231l199 -229l53 57l-197 230l201 235l-55 55l-197 -235 l-203 235z" />
<glyph unicode="&#x201e;" d="M102 711q0 168 83 311t225.5 226t310.5 83q126 0 241 -49t198 -132t132 -198t49 -241q0 -168 -83 -310.5t-226 -225.5t-311 -83t-310.5 83t-225.5 225.5t-83 310.5zM467 946l205 -237l-201 -232l53 -55l195 231l199 -229l53 57l-197 230l201 235l-55 55l-197 -235 l-203 235z" />
<glyph unicode="&#x2022;" d="M102 711q0 168 83 311t225.5 226t310.5 83q126 0 241 -49t198 -132t132 -198t49 -241q0 -168 -83 -310.5t-226 -225.5t-311 -83t-310.5 83t-225.5 225.5t-83 310.5zM467 946l205 -237l-201 -232l53 -55l195 231l199 -229l53 57l-197 230l201 235l-55 55l-197 -235 l-203 235z" />
<glyph unicode="&#x2026;" d="M102 711q0 168 83 311t225.5 226t310.5 83q126 0 241 -49t198 -132t132 -198t49 -241q0 -168 -83 -310.5t-226 -225.5t-311 -83t-310.5 83t-225.5 225.5t-83 310.5zM467 946l205 -237l-201 -232l53 -55l195 231l199 -229l53 57l-197 230l201 235l-55 55l-197 -235 l-203 235z" />
<glyph unicode="&#x202f;" horiz-adv-x="369" />
<glyph unicode="&#x2039;" d="M102 711q0 168 83 311t225.5 226t310.5 83q126 0 241 -49t198 -132t132 -198t49 -241q0 -168 -83 -310.5t-226 -225.5t-311 -83t-310.5 83t-225.5 225.5t-83 310.5zM467 946l205 -237l-201 -232l53 -55l195 231l199 -229l53 57l-197 230l201 235l-55 55l-197 -235 l-203 235z" />
<glyph unicode="&#x203a;" d="M102 711q0 168 83 311t225.5 226t310.5 83q126 0 241 -49t198 -132t132 -198t49 -241q0 -168 -83 -310.5t-226 -225.5t-311 -83t-310.5 83t-225.5 225.5t-83 310.5zM467 946l205 -237l-201 -232l53 -55l195 231l199 -229l53 57l-197 230l201 235l-55 55l-197 -235 l-203 235z" />
<glyph unicode="&#x205f;" horiz-adv-x="462" />
<glyph unicode="&#x20ac;" d="M102 711q0 168 83 311t225.5 226t310.5 83q126 0 241 -49t198 -132t132 -198t49 -241q0 -168 -83 -310.5t-226 -225.5t-311 -83t-310.5 83t-225.5 225.5t-83 310.5zM467 946l205 -237l-201 -232l53 -55l195 231l199 -229l53 57l-197 230l201 235l-55 55l-197 -235 l-203 235z" />
<glyph unicode="&#x2122;" d="M102 711q0 168 83 311t225.5 226t310.5 83q126 0 241 -49t198 -132t132 -198t49 -241q0 -168 -83 -310.5t-226 -225.5t-311 -83t-310.5 83t-225.5 225.5t-83 310.5zM467 946l205 -237l-201 -232l53 -55l195 231l199 -229l53 57l-197 230l201 235l-55 55l-197 -235 l-203 235z" />
<glyph unicode="&#x25fc;" horiz-adv-x="1433" d="M0 0v1434h1434v-1434h-1434z" />
</font>
</defs>
</svg>
